<?xml version="1.0" encoding="UTF-8"?>
<svg id="Lager_2" data-name="Lager 2" xmlns="http://www.w3.org/2000/svg" viewBox="0 0 39.6 17.55">
  <defs>
    <style>
      .cls-1 {
        fill: #f7aa12;
        stroke-width: 0px;
      }
    </style>
  </defs>
  <g id="Lager_1-2" data-name="Lager 1">
    <path class="cls-1" d="M9.57.26l1.91,5.88c.05.16.2.26.36.26h6.18c.37,0,.53.48.23.69l-5,3.63c-.13.1-.19.27-.14.43l1.91,5.88c.11.35-.29.65-.59.43l-5-3.63c-.13-.1-.32-.1-.45,0l-5,3.63c-.3.22-.7-.08-.59-.43l1.91-5.88c.05-.16,0-.33-.14-.43L.16,7.1c-.3-.22-.15-.69.23-.69h6.18c.17,0,.31-.11.36-.26L8.84.26c.11-.35.61-.35.73,0Z"/>
    <path class="cls-1" d="M30.76.26l1.91,5.88c.05.16.2.26.36.26h6.18c.37,0,.53.48.23.69l-5,3.63c-.13.1-.19.27-.14.43l1.91,5.88c.11.35-.29.65-.59.43l-5-3.63c-.13-.1-.32-.1-.45,0l-5,3.63c-.3.22-.7-.08-.59-.43l1.91-5.88c.05-.16,0-.33-.14-.43l-5-3.63c-.3-.22-.15-.69.23-.69h6.18c.17,0,.31-.11.36-.26l1.91-5.88c.11-.35.61-.35.73,0Z"/>
  </g>
</svg>