<?xml version="1.0" encoding="UTF-8"?>
<svg id="Lager_2" data-name="Lager 2" xmlns="http://www.w3.org/2000/svg" viewBox="0 0 284.74 152.78">
  <defs>
    <style>
      .cls-1 {
        fill: none;
        stroke: #1d1d1b;
        stroke-miterlimit: 10;
        stroke-width: 3px;
      }

      .cls-2 {
        fill: #ffcc03;
      }

      .cls-2, .cls-3, .cls-4 {
        stroke-width: 0px;
      }

      .cls-3 {
        fill: #1d1d1b;
      }

      .cls-4 {
        fill: #fff;
      }
    </style>
  </defs>
  <g id="Lager_1-2" data-name="Lager 1">
    <g>
      <polygon class="cls-2" points="204.72 0 143.67 105.73 265.76 105.73 204.72 0"/>
      <polygon class="cls-2" points="265.76 35.24 143.67 35.24 204.72 140.98 265.76 35.24"/>
      <polygon class="cls-2" points="239.96 9.87 134.23 70.92 239.96 131.96 239.96 9.87"/>
      <polygon class="cls-2" points="271.09 70.92 165.35 9.87 165.35 131.96 271.09 70.92"/>
    </g>
    <g>
      <ellipse class="cls-4" cx="83.56" cy="106.34" rx="82.06" ry="40.55"/>
      <ellipse class="cls-4" cx="131.78" cy="75.37" rx="66.42" ry="60.03"/>
      <ellipse class="cls-4" cx="165.62" cy="109.77" rx="55.24" ry="41.51"/>
      <path class="cls-4" d="M198.36,65.42c50.07,8.83,87.18,27.83,84.92,44.43-2.11,15.52-37.94,23.86-83.96,20.9"/>
      <path class="cls-1" d="M197.32,65.61c.57,3.18.87,6.44.87,9.76"/>
      <path class="cls-1" d="M65.36,65.79c3.6-23.88,29.74-50.45,66.42-50.45,33,0,60.38,21.76,65.54,50.27"/>
      <polyline class="cls-3" points="66.38 65.46 65.85 67.16 64.15 66.64 64.68 64.94 66.38 65.46"/>
      <path class="cls-1" d="M199.29,66.57c49.53,8.91,86.09,27.76,83.85,44.24-2.01,14.78-34.62,23.05-77.48,21.24"/>
      <rect class="cls-3" x="197.68" y="65.4" width="1.97" height="1.97" transform="translate(385.88 160.31) rotate(-171.84)"/>
      <path class="cls-1" d="M211.43,132.98c-9.93,11.04-26.74,18.3-45.81,18.3-20,0-37.52-7.99-47.21-19.95"/>
      <rect class="cls-3" x="208.74" y="132.9" width="3.94" height="1.8" transform="translate(456.13 88.3) rotate(137.08)"/>
      <path class="cls-1" d="M129.82,139.84c-13.17,4.45-29.1,7.05-46.26,7.05-45.32,0-82.06-18.16-82.06-40.55,0-20.02,29.36-36.65,67.96-39.96"/>
      <circle class="cls-4" cx="137.49" cy="128.4" r="14.36"/>
    </g>
  </g>
</svg>