<?xml version="1.0" encoding="UTF-8"?>
<svg id="Lager_2" data-name="Lager 2" xmlns="http://www.w3.org/2000/svg" viewBox="0 0 16.18 11.36">
  <defs>
    <style>
      .cls-1 {
        stroke: #f8ab12;
      }

      .cls-1, .cls-2, .cls-3 {
        fill: none;
        stroke-miterlimit: 10;
        stroke-width: .5px;
      }

      .cls-2 {
        stroke: #00a49d;
      }

      .cls-4 {
        fill: #4d494a;
        stroke-width: 0px;
      }

      .cls-3 {
        stroke: #e62c2e;
      }
    </style>
  </defs>
  <g id="Lager_1-2" data-name="Lager 1">
    <path class="cls-4" d="M3.69.88c-.16.23-.25.5-.25.8s.09.57.25.79c.03.05.07.1.11.15H.94c-.52,0-.94-.42-.94-.95s.42-.94.94-.94h2.86s-.08.1-.11.15Z"/>
    <path class="cls-4" d="M16.18,1.67c0,.53-.42.95-.94.95H5.94s.08-.1.12-.15c.15-.22.24-.5.24-.79s-.09-.57-.24-.8c-.04-.05-.07-.1-.12-.15h9.3c.52,0,.94.42.94.94Z"/>
    <path class="cls-4" d="M11.32,4.88c-.16.23-.25.5-.25.8s.09.57.25.8c.03.05.07.09.1.14H.94c-.52,0-.94-.42-.94-.94s.42-.95.94-.95h10.49s-.08.1-.11.15Z"/>
    <path class="cls-4" d="M16.18,5.68c0,.52-.42.94-.94.94h-1.66s.08-.09.11-.14c.15-.23.24-.5.24-.8s-.09-.57-.24-.8c-.04-.05-.07-.1-.12-.15h1.67c.52,0,.94.43.94.95Z"/>
    <path class="cls-4" d="M3.69,8.89c-.16.22-.25.5-.25.8s.09.57.25.79c.03.05.07.1.11.15H.94c-.52,0-.94-.42-.94-.95s.42-.94.94-.94h2.86s-.08.1-.11.15Z"/>
    <path class="cls-4" d="M16.18,9.68c0,.53-.42.95-.94.95H5.94c.05-.05.08-.1.12-.15.15-.22.24-.5.24-.79s-.09-.58-.24-.8c-.04-.05-.07-.1-.12-.15h9.3c.52,0,.94.42.94.94Z"/>
    <path class="cls-3" d="M6.3,1.68c0,.29-.09.57-.24.79-.04.05-.07.1-.12.15-.26.29-.65.48-1.07.48s-.81-.19-1.07-.48c-.04-.05-.08-.1-.11-.15-.16-.22-.25-.5-.25-.79s.09-.57.25-.8c.03-.05.07-.1.11-.15.26-.29.65-.48,1.07-.48s.81.19,1.07.48c.05.05.08.1.12.15.15.23.24.5.24.8Z"/>
    <path class="cls-1" d="M13.93,5.68c0,.3-.09.57-.24.8-.03.05-.07.09-.11.14-.26.3-.65.49-1.08.49s-.82-.19-1.08-.49c-.03-.05-.07-.09-.1-.14-.16-.23-.25-.5-.25-.8s.09-.57.25-.8c.03-.05.07-.1.11-.15.26-.29.65-.48,1.07-.48s.81.19,1.07.48c.05.05.08.1.12.15.15.23.24.5.24.8Z"/>
    <path class="cls-2" d="M6.3,9.69c0,.29-.09.57-.24.79-.04.05-.07.1-.12.15-.26.29-.65.48-1.07.48s-.81-.19-1.07-.48c-.04-.05-.08-.1-.11-.15-.16-.22-.25-.5-.25-.79s.09-.58.25-.8c.03-.05.07-.1.11-.15.26-.29.65-.48,1.07-.48s.81.19,1.07.48c.05.05.08.1.12.15.15.22.24.5.24.8Z"/>
  </g>
</svg>