<?xml version="1.0" encoding="UTF-8"?>
<svg id="Lager_2" data-name="Lager 2" xmlns="http://www.w3.org/2000/svg" viewBox="0 0 3.46 3.05">
  <defs>
    <style>
      .cls-1 {
        stroke: #e62d2f;
      }

      .cls-1, .cls-2, .cls-3 {
        fill: none;
        stroke-miterlimit: 10;
        stroke-width: .18px;
      }

      .cls-4 {
        fill: #4d494a;
        stroke-width: 0px;
      }

      .cls-2 {
        stroke: #f8ab12;
      }

      .cls-3 {
        stroke: #00a49d;
      }
    </style>
  </defs>
  <g id="Lager_1-2" data-name="Lager 1">
    <path class="cls-4" d="M.77.29c-.04.07-.06.13-.06.21,0,.09.03.17.08.24H.24c-.14,0-.24-.1-.24-.24s.1-.24.24-.24h.55s0,.02-.02.03Z"/>
    <path class="cls-4" d="M3.46.5c0,.14-.11.24-.24.24h-1.76c.04-.07.07-.15.07-.24,0-.08-.02-.14-.06-.21,0-.01,0-.02-.02-.03h1.77c.13,0,.24.1.24.24Z"/>
    <path class="cls-4" d="M2.02,1.32c-.03.06-.05.13-.05.21,0,.09.03.18.08.24H.24c-.14,0-.24-.11-.24-.24,0-.14.1-.25.24-.25h1.81s-.02.03-.03.04Z"/>
    <path class="cls-4" d="M3.46,1.53c0,.13-.11.24-.24.24h-.52c.05-.06.09-.15.09-.24,0-.08-.02-.15-.06-.21-.01-.01-.02-.03-.03-.04h.52c.13,0,.24.11.24.25Z"/>
    <path class="cls-4" d="M.51,2.34c-.04.07-.06.14-.06.21,0,.1.03.18.08.25H.24c-.14,0-.24-.11-.24-.25,0-.13.1-.24.24-.24h.29s-.01.02-.02.03Z"/>
    <path class="cls-4" d="M3.46,2.55c0,.14-.11.25-.24.25H1.19c.05-.07.08-.15.08-.25,0-.07-.02-.14-.06-.21-.01,0-.01-.02-.02-.03h2.03c.13,0,.24.11.24.24Z"/>
    <path class="cls-2" d="M2.79,1.53c0,.09-.04.18-.09.24-.07.1-.19.16-.32.16-.14,0-.25-.06-.33-.16-.05-.06-.08-.15-.08-.24,0-.08.02-.15.05-.21.01-.01.02-.03.03-.04.08-.1.2-.16.33-.16s.25.06.32.16c.01.01.02.03.03.04.04.06.06.13.06.21Z"/>
    <path class="cls-3" d="M1.27,2.55c0,.1-.03.18-.08.25-.08.1-.2.16-.33.16s-.25-.06-.33-.16c-.05-.07-.08-.15-.08-.25,0-.07.02-.14.06-.21.01,0,.01-.02.02-.03.07-.1.19-.17.33-.17s.26.07.33.17c.01.01.01.02.02.03.04.07.06.14.06.21Z"/>
    <path class="cls-1" d="M1.53.5c0,.09-.03.17-.07.24-.01,0-.01.01-.01.01-.08.1-.2.16-.33.16s-.25-.06-.33-.16h0c-.05-.08-.08-.16-.08-.25,0-.08.02-.14.06-.21.01-.01.01-.02.02-.03.07-.1.19-.17.33-.17s.26.07.33.17c.01.01.01.02.02.03.04.07.06.13.06.21Z"/>
  </g>
</svg>