<?xml version="1.0" encoding="UTF-8"?>
<svg id="Lager_2" data-name="Lager 2" xmlns="http://www.w3.org/2000/svg" viewBox="0 0 24.15 24.15">
  <defs>
    <style>
      .cls-1 {
        fill: #f5b1cc;
        stroke: #1d1d1b;
        stroke-miterlimit: 10;
        stroke-width: .25px;
      }
    </style>
  </defs>
  <g id="Lager_1-2" data-name="Lager 1">
    <path class="cls-1" d="M12.07.12C5.47.12.12,5.47.12,12.07s5.35,11.95,11.95,11.95,11.95-5.35,11.95-11.95S18.67.12,12.07.12ZM11.12,5.25c.34-.34.62-.47.94-.47.34,0,.62.13.96.47.34.34.47.6.47.94s-.15.62-.47.94c-.34.34-.62.47-.96.47-.32,0-.58-.13-.94-.47-.34-.32-.47-.6-.47-.94s.13-.6.47-.94ZM15.02,18.38c0,.19-.13.28-.32.28h-5.31c-.19,0-.32-.09-.32-.28v-.58c0-.17.11-.28.28-.28h.04c.92,0,1.36-.77,1.36-1.77v-2c0-.83-.08-1.88-1.11-1.98-.19-.02-.23-.11-.23-.23v-.64c0-.15.08-.19.28-.26,1.98-.66,2.94-1.39,3.45-1.92.02,0,.04-.02.08-.02h.04s.04.02.04.02v7.01c0,1,.45,1.79,1.36,1.79h.06c.19,0,.28.11.28.28v.58Z"/>
  </g>
</svg>