<?xml version="1.0" encoding="UTF-8"?>
<svg id="Lager_2" data-name="Lager 2" xmlns="http://www.w3.org/2000/svg" viewBox="0 0 51.4 26.65">
  <defs>
    <style>
      .cls-1 {
        fill: #1e1e1c;
        font-family: YoungSerif-Regular, 'Young Serif';
        font-size: 24.27px;
      }

      .cls-2 {
        fill: #f5b3ce;
        stroke-width: 0px;
      }
    </style>
  </defs>
  <g id="Lager_1-2" data-name="Lager 1">
    <g>
      <g>
        <path class="cls-2" d="M18.96,20.14c-1.79,0-3.25-1.46-3.25-3.25v-5.42l.18.31c.24.42.56.78.94,1.07l.04.03v4.01c0,1.15.94,2.09,2.09,2.09s2.09-.94,2.09-2.09v-5.11c0-1.15-.94-2.09-2.09-2.09-.61,0-1.19.27-1.59.74l-.13.15-.04-.19c-.03-.12-.04-.24-.04-.37v-.95l.04-.03c.52-.34,1.13-.51,1.75-.51,1.79,0,3.25,1.46,3.25,3.25v5.11c0,1.79-1.46,3.25-3.25,3.25Z"/>
        <path class="cls-2" d="M18.96,13.27c-1.79,0-3.25-1.46-3.25-3.25v-5.11c0-1.79,1.46-3.25,3.25-3.25s3.25,1.46,3.25,3.25v5.42l-.18-.31c-.24-.42-.56-.78-.94-1.07l-.04-.03v-4.01c0-1.15-.94-2.09-2.09-2.09s-2.09.94-2.09,2.09v5.11c0,1.15.94,2.09,2.09,2.09.61,0,1.19-.27,1.59-.74l.13-.15.04.19c.03.12.04.24.04.37v.95l-.04.03c-.52.34-1.13.51-1.75.51Z"/>
      </g>
      <text class="cls-1" transform="translate(0 20.14)"><tspan x="0" y="0">L</tspan></text>
      <text class="cls-1" transform="translate(23.39 20.14)"><tspan x="0" y="0">nk</tspan></text>
    </g>
  </g>
</svg>