<?xml version="1.0" encoding="UTF-8"?>
<svg id="Lager_2" data-name="Lager 2" xmlns="http://www.w3.org/2000/svg" viewBox="0 0 330.2 112.66">
  <defs>
    <style>
      .cls-1 {
        fill: #979797;
        opacity: .34;
      }

      .cls-1, .cls-2, .cls-3 {
        stroke-width: 0px;
      }

      .cls-2 {
        fill: #000;
      }

      .cls-3 {
        fill: #fff;
      }
    </style>
  </defs>
  <g id="papper">
    <g>
      <polygon class="cls-3" points="4.13 91.69 4.14 91.66 3.3 91.66 4.13 91.69"/>
      <polygon class="cls-3" points="10.05 91.98 10.66 92.45 10.64 93.17 11.29 93.73 10.84 94.11 11.61 94.5 12.04 94.22 12.97 94.59 13.61 94.23 14.2 93.73 14.94 93.65 15.65 93.47 16.32 93.18 17.09 93.25 17.81 93.13 18.51 92.93 19.43 92.23 20.15 92.2 20.78 91.8 21.52 91.91 21.92 91.66 9.93 91.66 10.05 91.98"/>
      <polygon class="cls-3" points="323.54 109.99 324.19 109.82 323.47 109.82 323.54 109.99"/>
      <polygon class="cls-3" points="251.42 92.24 251.86 92.34 252.25 91.98 253.04 92.14 253.61 91.66 251.12 91.66 251.42 92.24"/>
      <rect class="cls-3" x=".07" y="55.91" width="330.12" height="1.57"/>
      <rect class="cls-1" x=".07" y="55.91" width="330.12" height="1.57"/>
      <rect class="cls-3" x=".03" y="73.35" width="330.11" height="1.57"/>
      <rect class="cls-1" x=".03" y="73.35" width="330.11" height="1.57"/>
      <polygon class="cls-3" points="4.45 90.64 5.28 90.3 6.12 90.21 6.27 90.09 .07 90.09 .07 91.66 2.88 91.66 2.88 91.65 3.3 91.66 4.14 91.66 4.16 91.52 4.45 90.64"/>
      <polygon class="cls-3" points="150.4 90.76 151.01 90.35 151.82 90.31 152.04 90.09 7.94 90.09 8.12 90.42 9.04 90.17 9.79 90.41 9.81 91.36 9.93 91.66 21.92 91.66 22.19 91.49 22.32 91.66 150.02 91.66 150.24 91.6 150.4 90.76"/>
      <polygon class="cls-3" points="276.45 90.25 277.16 90.68 277.86 91.03 278.58 91.38 279.12 91.66 330.18 91.66 330.18 90.09 275.85 90.09 276.45 90.25"/>
      <polygon class="cls-1" points="276.45 90.25 277.16 90.68 277.86 91.03 278.58 91.38 279.12 91.66 330.18 91.66 330.18 90.09 275.85 90.09 276.45 90.25"/>
      <polygon class="cls-3" points="162.67 90.51 163.45 90.35 163.71 90.09 157.39 90.09 157.53 90.44 157.87 91.18 157.7 91.66 161.95 91.66 162.36 91.26 162.67 90.51"/>
      <polygon class="cls-3" points="270.79 91.08 271.57 91.12 272.35 91.24 272.9 90.69 273.61 90.64 274.3 90.6 274.87 90.09 247.32 90.09 247.54 90.61 248.18 91.16 248.87 91.09 249.37 91.39 250.31 91.12 251.04 91.51 251.12 91.66 253.61 91.66 253.7 91.59 254.21 91.66 270.03 91.66 270.14 91.36 270.79 91.08"/>
      <polygon class="cls-3" points="241.89 90.8 242 90.09 170.02 90.09 170.1 90.52 170.88 90.77 170.94 91.56 171.03 91.66 223.4 91.66 223.48 91.62 224.04 90.89 224.88 91.07 225.64 90.89 226.44 90.66 227.08 91.32 227.72 91.59 228.62 91.29 229.16 91.66 240.56 91.66 241.41 91.36 241.89 90.8"/>
      <g>
        <polygon class="cls-3" points="279.31 91.76 279.83 92.35 280.2 92.79 280.82 93.31 280.99 94.27 281.69 94.67 282.19 95.24 282.68 95.82 283.33 96.24 284.16 96.08 284.68 96.75 285.37 96.99 286.14 96.59 286.78 97.36 287.53 96.91 288.24 96.8 288.95 96.84 289.65 96.88 290.69 97.33 291.25 97.6 291.89 97.42 292.27 97.34 292.8 96.87 292.9 95.83 293.46 95.73 293.86 95.05 294.8 95.09 295.26 94.45 295.86 93.91 296.65 93.93 297.44 93.74 298.2 94.08 298.91 94.37 299.73 94.33 300.12 94.18 300.64 94.75 301.15 95.2 301.94 95.04 302.27 95.83 303.19 95.74 303.56 96.56 304.12 97.04 304.94 97.24 305.45 97.81 305.94 97.3 306.68 97.2 307.48 97.91 308.15 97.34 308.88 97.81 309.58 97.81 310.28 97.81 310.95 97.96 311.81 97.45 312.14 98.41 312.94 98.41 313.61 98.76 314.18 99.27 314.27 100.05 314.4 100.76 314.43 101.47 314.38 102.17 314.99 102.77 315.2 103.08 315.23 103.74 315.35 104.4 314.62 105.02 315.08 105.69 314.7 106.53 315.03 106.58 315.38 107.06 316.05 106.31 316.73 106.3 317.39 107.04 318.05 106.62 318.71 106.44 319.37 106.28 320.09 107.1 320.8 107.09 321.46 107.32 322.07 107.66 322.97 107.77 323.08 108.24 330.18 108.24 330.18 91.66 279.12 91.66 279.31 91.76"/>
        <polygon class="cls-3" points="254.46 91.7 255.23 91.68 255.99 91.8 256.68 92.15 257.45 92.33 257.87 93.05 258.21 93.78 258.49 93.97 259.27 94.23 259.99 94.54 260.37 95.3 261.09 95.61 261.61 96.23 261.95 96.12 262.44 95.43 263.1 94.89 263.94 94.85 264.41 94.17 265.06 93.81 265.72 93.47 266.54 93.45 267.2 93.12 267.96 93.03 268.5 92.43 269.16 92.32 269.83 92.23 270.03 91.66 254.21 91.66 254.46 91.7"/>
        <polygon class="cls-3" points="229.23 91.72 229.68 92.37 230.34 92.68 231.13 92.88 231.19 93.02 231.3 93.85 232.17 93.88 232.05 94.87 232.78 95.4 233.7 95.65 233.84 95.82 234.56 96.53 235.04 95.83 235.3 95.08 235.93 94.66 236.64 94.36 236.93 93.52 237.92 93.73 238.39 93.05 239.15 93.13 239.66 92.4 240.16 92.14 240.56 91.66 240.56 91.66 229.16 91.66 229.23 91.72"/>
        <polygon class="cls-3" points="325.22 110.39 325.77 111.13 326.57 110.67 326.88 110.8 327.7 111.36 328.5 111.55 329.09 112.12 329.29 112.65 329.46 112.31 330.18 112.66 330.18 109.82 324.67 109.82 325.22 110.39"/>
        <polygon class="cls-3" points="157.58 91.97 157.82 92.07 158.46 92.66 159.32 92.65 160.09 93.19 160.52 92.75 161.04 91.95 161.85 91.77 161.95 91.66 157.7 91.66 157.58 91.97"/>
        <polygon class="cls-3" points="22.81 92.31 23.62 91.9 24.26 92.26 24.61 92.94 25.28 93.29 25.5 94.08 26.23 94.16 26.75 94.74 27.17 95.5 28.04 95.49 28.56 96.02 29.19 96.39 29.53 97.14 30.67 97.22 30.78 98.19 31.54 98.38 31.56 98.22 32.01 97.91 32.58 97.8 33.3 97.37 34.2 97.35 34.75 96.5 35.54 96.35 36.25 96 37.19 96.21 37.84 95.87 38.54 95.65 39.15 95.13 39.85 94.91 40.72 94.92 41.52 94.65 41.58 94.38 42 93.82 42.85 94.21 43.27 93.42 43.96 93.92 44.73 93.34 45.58 93.31 45.95 94.37 47.01 94.19 47.25 95.04 47.22 95.28 47.93 95.48 48.39 95.9 48.23 96.82 49.34 96.89 49.71 97.54 50.16 98.13 50.75 98.62 51.54 98.84 52.16 99.28 52.71 99.82 53.21 100.52 54.01 100.44 54.66 100.2 55.49 100.18 56.1 99.68 56.94 99.55 57.43 98.9 57.88 98.18 58.44 97.64 59.26 97.61 59.84 97.19 60.35 96.69 60.89 96.25 61.47 95.89 62.11 95.64 62.61 95.16 63.42 95.21 63.86 94.63 64.38 94.18 65.13 94.1 65.76 93.78 66.55 93.98 67.18 93.65 67.82 93.3 68.49 92.84 69.21 92.86 69.93 92.91 70.64 93.01 71.42 92.77 72.13 93.29 72.82 93.67 73.66 93.34 74.34 93.73 75.14 93.64 75.75 93.85 76.39 93.86 76.94 94.63 77.71 94.56 78.33 94.94 78.99 95.24 79.81 95.07 80.42 95.4 81.09 95.38 81.91 96.29 82.78 95.44 83.65 95.57 84.48 95.81 84.63 96.28 84.86 95.42 85.63 95.14 86.07 94.35 86.88 94.19 87.67 94.08 88.4 93.84 89.35 93.93 89.48 93.14 90.35 93.22 90.98 92.69 91.8 92.94 92.54 92.64 93.31 92.67 94.1 92.79 95 92.93 95.62 93.67 95.84 94.48 95.81 95.39 96.22 95.44 96.85 95.68 97.56 95.86 98.09 96.86 98.27 96.25 98.04 96.17 98.87 95.9 99.64 95.7 100.26 95.28 101.05 95.39 101.76 95.24 102.49 95.01 102.6 94.99 103.46 94.97 104.32 95.08 105.06 94.91 105.81 94.83 106.56 94.64 107.31 94.8 108.09 94.47 108.78 95.12 109.63 94.63 110.23 95.38 111.1 95.11 111.86 95.33 112.48 95.87 112.78 96.75 113.64 96.92 114.27 97.44 114.32 98.25 114.63 98.9 115.69 98.86 116.65 99.13 117.37 98.88 117.91 98.45 118.15 98.84 118.89 98 119.86 98.51 120.4 97.94 121.1 97.79 121.79 97.64 122.37 96.93 123.13 97.04 123.88 97.28 124.56 96.83 125.29 96.71 126.03 96.71 126.79 96.68 127.35 97.48 128.23 97.6 129.03 98.18 129.65 97.18 130.39 97.14 131.08 96.96 131.78 96.85 132.48 96.81 133.04 96.46 133.66 96.46 134.28 96.46 134.38 96.34 135.2 96.07 135.93 95.75 136.58 95.23 137.37 95.04 137.99 94.43 138.09 94.29 138.96 94.56 139.63 94.34 140.27 94.07 140.77 93.38 141.65 93.82 142.26 93.45 142.92 93.24 143.53 92.71 144.27 92.89 144.98 93 145.67 93.03 146.44 92.49 147.24 92.55 148.07 92.61 148.7 92.98 148.82 93.13 149.18 92.53 149.43 91.83 150.02 91.66 22.32 91.66 22.81 92.31"/>
        <path class="cls-3" d="M.9,94.1l.15-1.08.57-.49.97.03.29-.89H.07v-1.57h6.2l.5-.43.81-.19.36.63h144.1l.29-.29.64-.28.64-.43.74.11.75-.14.67.79.9-.65.6.59.12.29h6.32l.26-.26.57-.45.8.06.6-.36.65-.37.73-.24.62.64.74-.07.65.3.61.36.07.38h71.98l.04-.26.93-.02.72-.16.66-.3.72.17.69-.02.9-.29.55.61.11.26h27.55l.12-.11.74.07.12.03h54.33v-32.61H.07v-1.57h330.12v-15.36H.09v-1.57h330.1v-15.11H.09v-1.57h330.1V7.17H.09v-1.57h330.1V0H0v94.25l.02-.02.88-.14ZM.03,73.35h330.11v1.57H.03v-1.57Z"/>
        <polygon class="cls-3" points="171.39 92.09 171.58 92.77 172.25 93.19 172.76 93.68 172.66 94.58 173.26 95.01 173.72 95.53 173.98 96.22 174.89 96.34 175.13 97.05 175.47 97.68 176.04 98.09 176.61 98.52 177.33 98.84 177.69 99.5 178.26 99.96 178.33 100.84 178.76 100.85 178.88 100.84 179.45 100.29 180.13 100.15 180.69 99.52 181.46 99.74 182.13 99.55 182.83 99.52 183.52 99.38 184.24 99.5 184.89 99.3 185.37 98.5 186.09 98.58 186.75 98.44 187.47 98.48 188.09 98.21 188.71 97.92 189.44 98.03 189.99 97.53 190.52 96.88 191.38 97.52 191.62 97.43 192.31 97.21 192.97 96.77 193.74 96.51 194.45 96.84 195.31 96.67 195.87 97.27 196.45 97.74 197.16 97.8 197.71 98.56 198.49 98.38 199.41 98.95 200.27 98.34 200.94 98.58 201.59 99.06 202.32 99.03 203.03 99.09 203.74 98.68 204.44 98.77 205.2 99.01 205.66 98.51 206.16 98.15 206.94 98.14 207.53 97.78 207.69 96.79 208.52 96.78 209.08 96.36 209.63 95.77 210.54 96.04 211.16 95.63 211.68 94.81 212.54 95.13 213.3 95.26 213.97 94.58 214.73 94.79 215.44 95.1 216.06 95.42 216.87 95.01 217.27 95.78 218.07 95.76 218.59 96.72 219.31 95.79 219.5 94.82 220.12 94.38 220.2 93.5 220.8 93.04 221.69 92.89 222.06 92.22 222.83 91.97 223.4 91.66 171.03 91.66 171.39 92.09"/>
        <polygon class="cls-1" points="4.45 90.64 5.28 90.3 6.12 90.21 6.27 90.09 .07 90.09 .07 91.66 2.88 91.66 2.88 91.65 3.3 91.66 4.14 91.66 4.16 91.52 4.45 90.64"/>
        <polygon class="cls-1" points="150.4 90.76 151.01 90.35 151.82 90.31 152.04 90.09 7.94 90.09 8.12 90.42 9.04 90.17 9.79 90.41 9.81 91.36 9.93 91.66 21.92 91.66 22.19 91.49 22.32 91.66 150.02 91.66 150.24 91.6 150.4 90.76"/>
        <polygon class="cls-1" points="162.67 90.51 163.45 90.35 163.71 90.09 157.39 90.09 157.53 90.44 157.87 91.18 157.7 91.66 161.95 91.66 162.36 91.26 162.67 90.51"/>
        <polygon class="cls-1" points="270.79 91.08 271.57 91.12 272.35 91.24 272.9 90.69 273.61 90.64 274.3 90.6 274.87 90.09 247.32 90.09 247.54 90.61 248.18 91.16 248.87 91.09 249.37 91.39 250.31 91.12 251.04 91.51 251.12 91.66 253.61 91.66 253.7 91.59 254.21 91.66 270.03 91.66 270.14 91.36 270.79 91.08"/>
        <polygon class="cls-1" points="241.89 90.8 242 90.09 170.02 90.09 170.1 90.52 170.88 90.77 170.94 91.56 171.03 91.66 223.4 91.66 223.48 91.62 224.04 90.89 224.88 91.07 225.64 90.89 226.44 90.66 227.08 91.32 227.72 91.59 228.62 91.29 229.16 91.66 240.56 91.66 241.41 91.36 241.89 90.8"/>
      </g>
      <rect class="cls-1" x="330.18" y="108.24" width=".02" height="1.57"/>
      <polygon class="cls-3" points="323.15 108.55 323.23 109.26 323.47 109.82 324.19 109.82 324.57 109.71 324.67 109.82 330.18 109.82 330.18 108.24 323.08 108.24 323.15 108.55"/>
      <polygon class="cls-1" points="323.15 108.55 323.23 109.26 323.47 109.82 324.19 109.82 324.57 109.71 324.67 109.82 330.18 109.82 330.18 108.24 323.08 108.24 323.15 108.55"/>
      <rect class="cls-1" x="330.18" y="5.6" width=".02" height="1.57"/>
      <rect class="cls-3" x=".09" y="5.6" width="330.1" height="1.57"/>
      <rect class="cls-1" x=".09" y="5.6" width="330.1" height="1.57"/>
      <rect class="cls-1" x="330.18" y="22.28" width=".02" height="1.57"/>
      <rect class="cls-3" x=".09" y="22.28" width="330.1" height="1.57"/>
      <rect class="cls-1" x=".09" y="22.28" width="330.1" height="1.57"/>
      <rect class="cls-1" x="330.18" y="38.97" width=".02" height="1.57"/>
      <rect class="cls-3" x=".09" y="38.97" width="330.1" height="1.57"/>
      <rect class="cls-1" x=".09" y="38.97" width="330.1" height="1.57"/>
      <polygon class="cls-2" points="21.92 91.66 22.32 91.66 22.19 91.49 21.92 91.66"/>
      <polygon class="cls-2" points="2.88 91.66 3.3 91.66 2.88 91.65 2.88 91.66"/>
      <polygon class="cls-2" points="324.19 109.82 324.67 109.82 324.57 109.71 324.19 109.82"/>
    </g>
  </g>
</svg>