<?xml version="1.0" encoding="UTF-8"?>
<svg id="Lager_2" data-name="Lager 2" xmlns="http://www.w3.org/2000/svg" viewBox="0 0 192.14 234.56">
  <defs>
    <style>
      .cls-1 {
        fill: none;
        stroke: #7d7f8a;
        stroke-miterlimit: 10;
        stroke-width: 12px;
      }

      .cls-2 {
        fill: #7d7f8a;
        stroke-width: 0px;
      }
    </style>
  </defs>
  <g id="Lager_1-2" data-name="Lager 1">
    <g>
      <g>
        <path class="cls-1" d="M186.01,48.23v158.25c0,12.2-9.88,22.08-22.08,22.08H28.09c-12.21,0-22.09-9.88-22.09-22.08V28.08C6,15.88,15.88,6,28.09,6h118.77c4.07,0,7.95,1.74,10.67,4.79l24.87,27.94c2.26,2.54,3.53,5.78,3.61,9.15,0,.12,0,.23,0,.36Z"/>
        <path class="cls-1" d="M186.01,47.87h-26.24c-7.13,0-12.91-5.78-12.91-12.92V6c4.07,0,7.95,1.74,10.67,4.79l24.87,27.94c2.26,2.54,3.53,5.78,3.61,9.15Z"/>
      </g>
      <rect class="cls-2" x="26.31" y="185.32" width="139.4" height="12.4" rx="6.06" ry="6.06"/>
      <rect class="cls-2" x="26.31" y="149.93" width="139.4" height="12.4" rx="6.06" ry="6.06"/>
      <rect class="cls-2" x="26.31" y="114.54" width="139.4" height="12.4" rx="6.06" ry="6.06"/>
      <rect class="cls-2" x="26.31" y="79.16" width="139.4" height="12.4" rx="6.06" ry="6.06"/>
    </g>
  </g>
</svg>