<?xml version="1.0" encoding="UTF-8"?>
<svg id="Lager_2" data-name="Lager 2" xmlns="http://www.w3.org/2000/svg" viewBox="0 0 10.03 21.5">
  <defs>
    <style>
      .cls-1 {
        fill: #00a39d;
      }

      .cls-1, .cls-2, .cls-3, .cls-4 {
        stroke-width: 0px;
      }

      .cls-2 {
        fill: #f7aa12;
      }

      .cls-3 {
        fill: #e62d2f;
      }

      .cls-4 {
        fill: #fff;
      }
    </style>
  </defs>
  <g id="Lager_1-2" data-name="Lager 1">
    <path class="cls-3" d="M3.84.15v3.29c-.32.31-.52.74-.52,1.22s.2.91.52,1.23v14.46h-.38s-.04-.1-.05-.15L.35,6.84c-.23-.58-.35-1.2-.35-1.83C0,2.66,1.63.68,3.83.15h.01Z"/>
    <path class="cls-2" d="M6.2.15v3.29c-.3-.3-.72-.48-1.18-.48s-.88.18-1.18.48V.15c.38-.1.77-.15,1.18-.15s.8.05,1.18.15Z"/>
    <path class="cls-2" d="M5.02,6.37c.46,0,.88-.18,1.18-.48v14.46h-2.36V5.89c.3.3.72.48,1.18.48Z"/>
    <path class="cls-1" d="M10.03,5.01c0,.56-.09,1.12-.27,1.65l-3.11,13.54s-.02.1-.05.15h-.4V5.89c.32-.32.52-.75.52-1.23s-.2-.91-.52-1.22V.15c2.19.52,3.83,2.51,3.83,4.86Z"/>
    <g>
      <path class="cls-4" d="M6.2.15c-.38-.1-.77-.15-1.18-.15s-.8.05-1.18.15h-.01C1.63.68,0,2.66,0,5.01c0,.63.12,1.25.35,1.83l3.06,13.36s.03.1.05.15c.22.7.83,1.14,1.57,1.15.75,0,1.36-.45,1.57-1.15.03-.05.04-.1.05-.15l3.11-13.54c.18-.53.27-1.09.27-1.65,0-2.35-1.64-4.34-3.83-4.86ZM8.67,6.31v.03s-2.47,10.73-2.47,10.73l-.66,2.88c-.09.37-.41.4-.51.4s-.42-.03-.5-.4l-.69-3.01L1.45,6.5l-.02-.04c-.19-.46-.28-.95-.28-1.45,0-1.72,1.13-3.18,2.69-3.69.37-.12.77-.18,1.18-.18s.81.06,1.18.18c1.56.51,2.69,1.97,2.69,3.69,0,.45-.08.88-.22,1.3Z"/>
      <path class="cls-4" d="M6.2,2.76c-.35-.22-.75-.34-1.18-.34s-.83.12-1.18.34c-.64.4-1.06,1.1-1.06,1.9s.42,1.51,1.06,1.9c.35.22.75.34,1.18.34s.83-.12,1.18-.34c.64-.39,1.06-1.1,1.06-1.9s-.42-1.5-1.06-1.9ZM6.2,5.89c-.3.3-.72.48-1.18.48s-.88-.18-1.18-.48c-.32-.32-.52-.75-.52-1.23s.2-.91.52-1.22c.3-.3.72-.48,1.18-.48s.88.18,1.18.48c.32.31.52.74.52,1.22s-.2.91-.52,1.23Z"/>
    </g>
  </g>
</svg>