<?xml version="1.0" encoding="UTF-8"?>
<svg id="Lager_2" data-name="Lager 2" xmlns="http://www.w3.org/2000/svg" viewBox="0 0 12.66 24.79">
  <defs>
    <style>
      .cls-1 {
        fill: #f5b1cc;
        stroke: #1d1d1b;
        stroke-miterlimit: 10;
        stroke-width: .25px;
      }
    </style>
  </defs>
  <g id="Lager_1-2" data-name="Lager 1">
    <g>
      <polygon class="cls-1" points="1.98 12.27 1.96 12.27 1.96 12.22 1.98 12.27"/>
      <path class="cls-1" d="M6.33.12C2.91.12.12,2.91.12,6.33c0,.29.02.57.06.86H.19c.01.06.02.1.02.15v.04s1.75,4.84,1.75,4.84l.02.05,4.36,12.15,1.82-5.09,3.58-9.96.71-1.99v-.04s.03-.1.03-.15c.04-.29.06-.57.06-.86C12.54,2.91,9.76.12,6.33.12ZM6.33,8.08c-1.25,0-2.27-1.02-2.27-2.26s1.02-2.27,2.27-2.27,2.26,1.02,2.26,2.27-1.02,2.26-2.26,2.26Z"/>
    </g>
  </g>
</svg>