<?xml version="1.0" encoding="UTF-8"?>
<svg id="Lager_2" data-name="Lager 2" xmlns="http://www.w3.org/2000/svg" viewBox="0 0 347.87 335.02">
  <defs>
    <style>
      .cls-1 {
        fill: #6a6467;
      }

      .cls-1, .cls-2, .cls-3, .cls-4, .cls-5, .cls-6, .cls-7, .cls-8, .cls-9, .cls-10, .cls-11, .cls-12, .cls-13, .cls-14, .cls-15, .cls-16, .cls-17, .cls-18, .cls-19 {
        stroke: #1d1d1b;
        stroke-miterlimit: 10;
      }

      .cls-2 {
        fill: #474746;
      }

      .cls-3 {
        fill: #0c8681;
      }

      .cls-4 {
        fill: #f7aa12;
      }

      .cls-5 {
        fill: #00a39d;
      }

      .cls-6 {
        fill: #e62d2f;
      }

      .cls-7 {
        fill: #e49e11;
      }

      .cls-8 {
        fill: #615c5f;
      }

      .cls-9 {
        fill: #7a7378;
      }

      .cls-10 {
        fill: #373636;
      }

      .cls-11 {
        fill: #bf2825;
      }

      .cls-12 {
        fill: #8a8989;
      }

      .cls-13 {
        fill: #645e61;
      }

      .cls-14 {
        fill: #0a908a;
      }

      .cls-15 {
        fill: #d72b2c;
      }

      .cls-16 {
        fill: #3c3c3b;
      }

      .cls-17 {
        fill: #d19210;
      }

      .cls-18 {
        fill: #696366;
      }

      .cls-19 {
        fill: #615d60;
      }
    </style>
  </defs>
  <g id="Lager_5" data-name="Lager 5">
    <g>
      <path class="cls-18" d="M.67,263.98h346.6v35.21c0,19.5-15.83,35.33-35.33,35.33H36c-19.5,0-35.33-15.83-35.33-35.33v-35.21h0Z"/>
      <rect class="cls-18" x=".67" y="245.3" width="346.6" height="18.68"/>
      <path class="cls-18" d="M.67,226.62h346.6v8.31c0,5.73-4.65,10.37-10.37,10.37H11.04c-5.73,0-10.37-4.65-10.37-10.37v-8.31h0Z"/>
      <rect class="cls-18" x=".67" y="231.28" width="14.02" height="14.02"/>
      <rect class="cls-18" x="333.24" y="231.28" width="14.02" height="14.02"/>
      <path class="cls-18" d="M347.26,226.62H.67c3.31-11.38,6.62-22.76,9.93-34.14h329.66c2.34,11.38,4.67,22.76,7.01,34.14Z"/>
      <path class="cls-18" d="M42.2,15.72h268.01c11.22,0,20.33,9.11,20.33,20.33H21.87c0-11.22,9.11-20.33,20.33-20.33Z"/>
      <path class="cls-19" d="M43.94,15.72h263.08c11.22,0,20.33,9.11,20.33,20.33v6.09H23.61v-6.09c0-11.22,9.11-20.33,20.33-20.33Z"/>
      <path class="cls-18" d="M44.94,25.75h261.18c18.83,0,34.13,15.29,34.13,34.13v132.6H10.82V59.88c0-18.83,15.29-34.13,34.13-34.13Z"/>
      <path class="cls-18" d="M340.75,194.31c-.07,0-.14,0-.21-.01.13.26.25.53.37.79-.05-.26-.11-.52-.16-.77Z"/>
      <path class="cls-13" d="M4.17,225.93h339.59v7.93c0,5.73-4.65,10.37-10.37,10.37H14.54c-5.73,0-10.37-4.65-10.37-10.37v-7.93h0Z"/>
      <path class="cls-8" d="M343.76,225.93H4.17c3.24-11.15,6.48-22.3,9.72-33.45h322.99c2.29,11.15,4.58,22.3,6.87,33.45Z"/>
      <path class="cls-19" d="M342.49,303.46c0,15.35-18.06,27.8-40.34,27.8H45.79c-22.28,0-40.34-12.45-40.34-27.8"/>
      <path class="cls-19" d="M238.23.5h57.26c4.86,0,8.81,3.95,8.81,8.81v8.44h-74.87v-8.44c0-4.86,3.95-8.81,8.81-8.81Z"/>
      <rect class="cls-19" x="36.66" y="266.91" width="277.53" height="16.9"/>
      <rect class="cls-1" x="36.66" y="279.5" width="277.53" height="8.45"/>
      <path class="cls-10" d="M228.2,109.11c0,21.37-12.66,39.79-30.89,48.15-2.2,1.02-4.48,1.88-6.83,2.58-3.82,1.15-7.83,1.88-11.96,2.13-1.09.07-2.18.1-3.28.1-1.19,0-2.37-.04-3.54-.12-4.12-.27-8.11-1.01-11.91-2.17-2.35-.71-4.63-1.59-6.82-2.61-18.12-8.41-30.69-26.76-30.69-48.06,0-29.25,23.71-52.96,52.96-52.96s52.96,23.71,52.96,52.96Z"/>
      <circle class="cls-16" cx="173.96" cy="110.18" r="28.13"/>
      <path class="cls-12" d="M180.19,125.7c.23.21,15.86-6.89,13.46-19.68-2.4-12.79-19.54-13.74-19.68-13.46-.14.29,15.86,4.27,17.65,13.87,1.79,9.59-11.66,19.06-11.43,19.27Z"/>
      <path class="cls-12" d="M177.18,121.64c.16.15,10.95-4.76,9.29-13.59-1.66-8.83-13.49-9.49-13.59-9.29-.1.2,10.95,2.95,12.19,9.58,1.24,6.62-8.05,13.16-7.89,13.3Z"/>
      <path class="cls-2" d="M175.24,61.27c-26.42,0-47.85,21.42-47.85,47.85s21.42,47.85,47.85,47.85,47.85-21.42,47.85-47.85-21.42-47.85-47.85-47.85ZM175.24,154.67c-25.16,0-45.55-20.39-45.55-45.55s20.39-45.55,45.55-45.55,45.55,20.39,45.55,45.55-20.39,45.55-45.55,45.55Z"/>
      <path class="cls-2" d="M174.69,69.28c-22,0-39.84,17.84-39.84,39.84s17.84,39.84,39.84,39.84,39.84-17.84,39.84-39.84-17.84-39.84-39.84-39.84ZM174.69,147.04c-20.95,0-37.93-16.98-37.93-37.93s16.98-37.93,37.93-37.93,37.93,16.98,37.93,37.93-16.98,37.93-37.93,37.93Z"/>
      <rect class="cls-8" x="32.13" y="58.93" width="58.86" height="49.04" rx="15.1" ry="15.1"/>
      <rect class="cls-9" x="32.13" y="61.97" width="58.86" height="49.04" rx="15.1" ry="15.1"/>
      <circle class="cls-8" cx="61.56" cy="149.68" r="18.84"/>
      <circle class="cls-6" cx="61.56" cy="152.24" r="18.84"/>
      <rect class="cls-8" x="270.05" y="107.42" width="44.14" height="12.53" rx="6.26" ry="6.26"/>
      <rect class="cls-10" x="270.05" y="109.11" width="44.14" height="12.53" rx="6.26" ry="6.26"/>
      <circle class="cls-2" cx="305.23" cy="115.38" r="4.57"/>
      <rect class="cls-2" x="273.83" y="112.72" width="22.68" height="5.32" rx="2.66" ry="2.66"/>
      <path class="cls-6" d="M159.79,159.78v32.69h-6.82v-35.3c2.19,1.02,4.47,1.9,6.82,2.61Z"/>
      <path class="cls-4" d="M178.52,161.97v30.5h-6.82v-30.52c1.17.08,2.35.12,3.54.12,1.1,0,2.19-.03,3.28-.1Z"/>
      <path class="cls-5" d="M197.31,157.26v35.21h-6.83v-32.63c2.35-.7,4.63-1.56,6.83-2.58Z"/>
      <rect class="cls-11" x="152.97" y="192.47" width="6.82" height="33.45"/>
      <rect class="cls-17" x="171.7" y="192.47" width="6.82" height="33.45"/>
      <rect class="cls-3" x="190.48" y="192.47" width="6.83" height="33.45"/>
      <rect class="cls-15" x="152.97" y="225.93" width="6.82" height="18.3"/>
      <rect class="cls-7" x="171.7" y="225.93" width="6.82" height="18.3"/>
      <rect class="cls-14" x="190.48" y="225.93" width="6.83" height="18.26"/>
    </g>
  </g>
</svg>