<?xml version="1.0" encoding="UTF-8"?>
<svg id="Lager_2" data-name="Lager 2" xmlns="http://www.w3.org/2000/svg" viewBox="0 0 346.6 334.02">
  <defs>
    <style>
      .cls-1 {
        fill: #0c8681;
      }

      .cls-1, .cls-2, .cls-3, .cls-4, .cls-5, .cls-6, .cls-7, .cls-8, .cls-9, .cls-10, .cls-11, .cls-12, .cls-13, .cls-14, .cls-15, .cls-16, .cls-17, .cls-18, .cls-19 {
        stroke-width: 0px;
      }

      .cls-2 {
        fill: #00a39d;
      }

      .cls-3 {
        fill: #bf2825;
      }

      .cls-4 {
        fill: #7a7378;
      }

      .cls-5 {
        fill: #373636;
      }

      .cls-6 {
        fill: #645e61;
      }

      .cls-7 {
        fill: #3c3c3b;
      }

      .cls-8 {
        fill: #615c5f;
      }

      .cls-9 {
        fill: #f7aa12;
      }

      .cls-10 {
        fill: #e62d2f;
      }

      .cls-11 {
        fill: #615d60;
      }

      .cls-12 {
        fill: #e49e11;
      }

      .cls-13 {
        fill: #6a6467;
      }

      .cls-14 {
        fill: #d72b2c;
      }

      .cls-15 {
        fill: #d19210;
      }

      .cls-16 {
        fill: #696366;
      }

      .cls-17 {
        fill: #474746;
      }

      .cls-18 {
        fill: #0a908a;
      }

      .cls-19 {
        fill: #8a8989;
      }
    </style>
  </defs>
  <g id="Lager_5" data-name="Lager 5">
    <g>
      <path class="cls-16" d="M0,263.48h346.6v35.21c0,19.5-15.83,35.33-35.33,35.33H35.33c-19.5,0-35.33-15.83-35.33-35.33v-35.21h0Z"/>
      <rect class="cls-16" y="244.8" width="346.6" height="18.68"/>
      <path class="cls-16" d="M0,226.12h346.6v8.31c0,5.73-4.65,10.37-10.37,10.37H10.37c-5.73,0-10.37-4.65-10.37-10.37v-8.31h0Z"/>
      <rect class="cls-16" y="230.78" width="14.02" height="14.02"/>
      <rect class="cls-16" x="332.58" y="230.78" width="14.02" height="14.02"/>
      <path class="cls-16" d="M346.6,226.12H0c3.31-11.38,6.62-22.76,9.93-34.14h329.66c2.34,11.38,4.67,22.76,7.01,34.14Z"/>
      <path class="cls-16" d="M41.54,15.22h268.01c11.22,0,20.33,9.11,20.33,20.33H21.21c0-11.22,9.11-20.33,20.33-20.33Z"/>
      <path class="cls-11" d="M43.27,15.22h263.08c11.22,0,20.33,9.11,20.33,20.33v6.09H22.94v-6.09c0-11.22,9.11-20.33,20.33-20.33Z"/>
      <path class="cls-16" d="M44.28,25.25h261.18c18.83,0,34.13,15.29,34.13,34.13v132.6H10.15V59.38c0-18.83,15.29-34.13,34.13-34.13Z"/>
      <path class="cls-16" d="M340.09,193.81c-.07,0-.14,0-.21-.01.13.26.25.53.37.79-.05-.26-.11-.52-.16-.77Z"/>
      <path class="cls-6" d="M3.5,225.43h339.59v7.93c0,5.73-4.65,10.37-10.37,10.37H13.88c-5.73,0-10.37-4.65-10.37-10.37v-7.93h0Z"/>
      <path class="cls-8" d="M343.09,225.43H3.5c3.24-11.15,6.48-22.3,9.72-33.45h322.99c2.29,11.15,4.58,22.3,6.87,33.45Z"/>
      <path class="cls-11" d="M341.82,302.96c0,15.35-18.06,27.8-40.34,27.8H45.12c-22.28,0-40.34-12.45-40.34-27.8"/>
      <path class="cls-11" d="M237.57,0h57.26c4.86,0,8.81,3.95,8.81,8.81v8.44h-74.87v-8.44c0-4.86,3.95-8.81,8.81-8.81Z"/>
      <rect class="cls-11" x="35.99" y="266.41" width="277.53" height="16.9"/>
      <rect class="cls-13" x="35.99" y="279" width="277.53" height="8.45"/>
      <path class="cls-5" d="M227.54,108.61c0,21.37-12.66,39.79-30.89,48.15-2.2,1.02-4.48,1.88-6.83,2.58-3.82,1.15-7.83,1.88-11.96,2.13-1.09.07-2.18.1-3.28.1-1.19,0-2.37-.04-3.54-.12-4.12-.27-8.11-1.01-11.91-2.17-2.35-.71-4.63-1.59-6.82-2.61-18.12-8.41-30.69-26.76-30.69-48.06,0-29.25,23.71-52.96,52.96-52.96s52.96,23.71,52.96,52.96Z"/>
      <circle class="cls-7" cx="173.3" cy="109.68" r="28.13"/>
      <path class="cls-19" d="M179.52,125.2c.23.21,15.86-6.89,13.46-19.68-2.4-12.79-19.54-13.74-19.68-13.46-.14.29,15.86,4.27,17.65,13.87,1.79,9.59-11.66,19.06-11.43,19.27Z"/>
      <path class="cls-19" d="M176.51,121.14c.16.15,10.95-4.76,9.29-13.59-1.66-8.83-13.49-9.49-13.59-9.29-.1.2,10.95,2.95,12.19,9.58,1.24,6.62-8.05,13.16-7.89,13.3Z"/>
      <path class="cls-17" d="M174.58,60.77c-26.42,0-47.85,21.42-47.85,47.85s21.42,47.85,47.85,47.85,47.85-21.42,47.85-47.85-21.42-47.85-47.85-47.85ZM174.58,154.17c-25.16,0-45.55-20.39-45.55-45.55s20.39-45.55,45.55-45.55,45.55,20.39,45.55,45.55-20.39,45.55-45.55,45.55Z"/>
      <path class="cls-17" d="M174.03,68.78c-22,0-39.84,17.84-39.84,39.84s17.84,39.84,39.84,39.84,39.84-17.84,39.84-39.84-17.84-39.84-39.84-39.84ZM174.03,146.54c-20.95,0-37.93-16.98-37.93-37.93s16.98-37.93,37.93-37.93,37.93,16.98,37.93,37.93-16.98,37.93-37.93,37.93Z"/>
      <rect class="cls-8" x="31.46" y="58.43" width="58.86" height="49.04" rx="15.1" ry="15.1"/>
      <rect class="cls-4" x="31.46" y="61.47" width="58.86" height="49.04" rx="15.1" ry="15.1"/>
      <circle class="cls-8" cx="60.89" cy="149.18" r="18.84"/>
      <circle class="cls-10" cx="60.89" cy="151.74" r="18.84"/>
      <rect class="cls-8" x="269.38" y="106.92" width="44.14" height="12.53" rx="6.26" ry="6.26"/>
      <rect class="cls-5" x="269.38" y="108.61" width="44.14" height="12.53" rx="6.26" ry="6.26"/>
      <circle class="cls-17" cx="304.56" cy="114.88" r="4.57"/>
      <rect class="cls-17" x="273.16" y="112.22" width="22.68" height="5.32" rx="2.66" ry="2.66"/>
      <path class="cls-10" d="M159.13,159.28v32.69h-6.82v-35.3c2.19,1.02,4.47,1.9,6.82,2.61Z"/>
      <path class="cls-9" d="M177.86,161.47v30.5h-6.82v-30.52c1.17.08,2.35.12,3.54.12,1.1,0,2.19-.03,3.28-.1Z"/>
      <path class="cls-2" d="M196.65,156.76v35.21h-6.83v-32.63c2.35-.7,4.63-1.56,6.83-2.58Z"/>
      <rect class="cls-3" x="152.31" y="191.97" width="6.82" height="33.45"/>
      <rect class="cls-15" x="171.04" y="191.97" width="6.82" height="33.45"/>
      <rect class="cls-1" x="189.82" y="191.97" width="6.83" height="33.45"/>
      <rect class="cls-14" x="152.31" y="225.43" width="6.82" height="18.3"/>
      <rect class="cls-12" x="171.04" y="225.43" width="6.82" height="18.3"/>
      <rect class="cls-18" x="189.82" y="225.43" width="6.83" height="18.26"/>
    </g>
  </g>
</svg>