<?xml version="1.0" encoding="UTF-8"?>
<svg id="Lager_2" data-name="Lager 2" xmlns="http://www.w3.org/2000/svg" viewBox="0 0 18.88 16.41">
  <defs>
    <style>
      .cls-1 {
        fill: #00a39d;
        stroke-width: 0px;
      }
    </style>
  </defs>
  <g id="Lager_1-2" data-name="Lager 1">
    <path class="cls-1" d="M4.05,2.72h0c-.38,0-.69-.31-.69-.69V.69c0-.38.31-.69.69-.69s.7.31.7.69v1.34c0,.38-.31.69-.69.69ZM4.05,2.03h0,0Z"/>
    <path class="cls-1" d="M4.08,16.21C1.84,16.21.02,14.38.02,12.14c0-.38.31-.69.69-.69s.69.31.69.69c0,1.48,1.2,2.68,2.68,2.68s2.68-1.2,2.68-2.68-1.2-2.68-2.68-2.68C1.82,9.47,0,7.64,0,5.4S1.82,1.34,4.06,1.34s4.06,1.82,4.06,4.06c0,.38-.31.69-.69.69s-.69-.31-.69-.69c0-1.48-1.2-2.68-2.68-2.68s-2.68,1.2-2.68,2.68,1.2,2.68,2.68,2.68c2.26,0,4.08,1.82,4.08,4.06s-1.82,4.06-4.06,4.06Z"/>
    <path class="cls-1" d="M14.78,2.92h0c-.38,0-.69-.31-.69-.69V.89c0-.38.31-.69.69-.69s.7.31.7.69v1.34c0,.38-.31.69-.69.69ZM14.78,2.23h0,0Z"/>
    <path class="cls-1" d="M14.81,16.41c-2.24,0-4.06-1.82-4.06-4.06,0-.38.31-.69.69-.69s.69.31.69.69c0,1.48,1.2,2.68,2.68,2.68s2.68-1.2,2.68-2.68-1.2-2.68-2.68-2.68c-2.26,0-4.08-1.82-4.08-4.06s1.82-4.06,4.06-4.06,4.06,1.82,4.06,4.06c0,.38-.31.69-.69.69s-.69-.31-.69-.69c0-1.48-1.2-2.68-2.68-2.68s-2.68,1.2-2.68,2.68,1.2,2.68,2.68,2.68c2.26,0,4.08,1.82,4.08,4.06s-1.82,4.06-4.06,4.06Z"/>
  </g>
</svg>