<?xml version="1.0" encoding="UTF-8"?>
<svg id="Lager_2" data-name="Lager 2" xmlns="http://www.w3.org/2000/svg" viewBox="0 0 17.55 19.98">
  <defs>
    <style>
      .cls-1 {
        fill: #4d494a;
        stroke-width: 0px;
      }
    </style>
  </defs>
  <g id="Lager_1-2" data-name="Lager 1">
    <path class="cls-1" d="M10.85,0c.92,0,1.66.74,1.66,1.66v.41h-.46c0-.92-.74-1.66-1.66-1.66h-3.24c-.92,0-1.66.74-1.66,1.66h0s-.45,0-.45,0v-.41c0-.92.74-1.66,1.66-1.66h4.15Z"/>
  </g>
  <g id="Lager_3" data-name="Lager 3">
    <path class="cls-1" d="M8.78,1.03H.78C.28,1.03-.09,1.49.02,1.97c1.26,5.8,2.53,11.6,3.79,17.4.08.36.39.61.76.61h8.41c.37,0,.68-.25.76-.61,1.26-5.8,2.53-11.6,3.79-17.4.11-.49-.26-.94-.76-.94h-8ZM12.88,19H4.67C3.5,13.4,2.33,7.79,1.15,2.18h15.24c-1.17,5.61-2.34,11.22-3.51,16.82Z"/>
    <rect class="cls-1" x="4.83" y="6.53" width="1.26" height="7.94" rx=".54" ry=".54"/>
    <rect class="cls-1" x="8.35" y="6.53" width="1.26" height="7.94" rx=".54" ry=".54"/>
    <rect class="cls-1" x="11.73" y="6.53" width="1.26" height="7.94" rx=".54" ry=".54"/>
  </g>
</svg>