<?xml version="1.0" encoding="UTF-8"?>
<svg id="Lager_2" data-name="Lager 2" xmlns="http://www.w3.org/2000/svg" viewBox="0 0 284.78 234.65" width="45" height="40">
  <defs>
    <style>
      .cls-1 {
        fill: none;
        stroke: #4d494a;
        stroke-miterlimit: 10;
        stroke-width: 12px;
      }

      .cls-2 {
        fill: #4d494a;
      }

      .cls-2, .cls-3 {
        stroke-width: 0px;
      }

      .cls-3 {
        fill: #4d494a;
      }
    </style>
  </defs>
  <g id="Lager_1-2" data-name="Lager 1">
    <g>
      <path class="cls-2" d="M102.14,51.82c-46.66,14.28-88.61,12.34-93.71-4.32-1.55-5.06.49-10.9,5.38-16.98C4.25,37.2-.89,44.39.13,51.19c2.58,17.23,43.8,25.33,92.05,18.09,48.25-7.24,85.27-27.07,82.69-44.3,0-.03-.01-.07-.02-.1-.81-5.11-7.04-7.23-10.99-3.88-13.45,11.41-35.55,22.82-61.72,30.83Z"/>
      <g>
        <g>
          <path class="cls-1" d="M262.82,72.27h-1.15c-8.82,0-15.98,7.79-15.98,17.41v-9.83c0-9.64-7.15-17.46-16.01-17.46h-.99c-8.85,0-16.02,7.82-16.02,17.46v-12.94c0-9.56-7.12-17.32-15.9-17.32h-1.28c-8.79,0-15.9,7.76-15.9,17.32V24.42c0-5.08-1.85-9.7-4.84-13.02-2.99-3.34-7.15-5.4-11.7-5.4-9.15,0-16.56,8.24-16.56,18.42v69.78c0,.41.3.75.68.75h-.62v59.73l-41.73-10.23c-9.19-4.9-20.19-.52-24.56,9.78l-.84,1.99c-3.27,7.68-.34,16.88,6.51,20.53l84.29,44.91c6.91,4.44,14.91,6.99,23.46,6.99h33.74c28.37,0,51.36-25.76,51.36-57.53v-81.44c0-9.62-7.14-17.41-15.96-17.41ZM179.6,94.95h-.68c.38,0,.68-.34.68-.75v.75Z"/>
          <path class="cls-1" d="M179.6,66.91v39.45l.05,6.68"/>
          <line class="cls-1" x1="212.68" y1="79.85" x2="212.68" y2="113.04"/>
          <line class="cls-1" x1="245.7" y1="89.68" x2="245.7" y2="113.04"/>
        </g>
        <polyline class="cls-1" points="146.56 104.22 146.55 98.19 146.5 77.26"/>
        <rect class="cls-3" x="143.97" y="91.74" width="6.52" height="6.41"/>
      </g>
    </g>
  </g>
</svg>