<?xml version="1.0" encoding="UTF-8"?>
<svg id="Lager_2" data-name="Lager 2" xmlns="http://www.w3.org/2000/svg" viewBox="0 0 23.4 19.28">
  <defs>
    <style>
      .cls-1 {
        fill: #726b6d;
      }

      .cls-1, .cls-2 {
        stroke-width: 0px;
      }

      .cls-2 {
        fill: #4e4a4c;
      }
    </style>
  </defs>
  <g id="Lager_3" data-name="Lager 3">
    <g>
      <path class="cls-1" d="M8.39,4.26c-3.83,1.17-7.28,1.01-7.7-.35-.13-.42.04-.9.44-1.39C.35,3.06-.07,3.65.01,4.21c.21,1.42,3.6,2.08,7.56,1.49s7.01-2.22,6.79-3.64c0,0,0,0,0,0-.07-.42-.58-.59-.9-.32-1.11.94-2.92,1.88-5.07,2.53Z"/>
      <g>
        <g>
          <path class="cls-2" d="M18.69,19.28h-2.77c-.76,0-1.52-.22-2.18-.64l-6.91-3.68c-.78-.42-1.12-1.46-.76-2.31l.07-.16c.23-.55.67-.97,1.2-1.16.48-.17.99-.14,1.44.09l2.76.68v-4.27s0-.05,0-.07V2.01c0-1.11.83-2.01,1.85-2.01.5,0,.98.22,1.33.61.34.37.52.87.52,1.4v1.78c.24-.13.52-.21.81-.21h.11c.8,0,1.47.55,1.71,1.32.27-.17.58-.26.91-.26h.08c.73,0,1.36.46,1.64,1.12.28-.2.62-.31.98-.31h.09c.99,0,1.8.86,1.8,1.92v6.69c0,2.88-2.11,5.22-4.71,5.22ZM7.96,12.2c-.1,0-.2.02-.29.05-.27.1-.5.32-.62.62l-.07.16c-.17.39-.02.88.31,1.06l6.94,3.7h.02c.5.34,1.08.51,1.66.51h2.77c2.06,0,3.73-1.9,3.73-4.23v-6.69c0-.52-.37-.94-.82-.94h-.09c-.45,0-.82.42-.82.94h-.99v-.81c0-.52-.37-.94-.82-.94h-.08c-.45,0-.82.42-.82.94h-.99v-1.06c0-.51-.36-.93-.81-.93h-.11c-.45,0-.81.42-.81.93h-.99v-3.49c0-.28-.1-.55-.27-.74-.16-.18-.37-.28-.6-.28-.48,0-.87.46-.87,1.02v5.73c0-.24-.2-.43-.44-.43v.49h.44v5.54l-4.1-1-.05-.03c-.13-.07-.28-.11-.42-.11ZM15.25,8.29h-.55v-.49h-.44v-.06h.44v-.43h.06v.43h.49v.55Z"/>
          <polygon class="cls-2" points="14.27 9.29 14.26 8.74 14.26 5.5 15.25 5.5 15.25 8.74 15.25 9.28 14.27 9.29"/>
          <rect class="cls-2" x="16.98" y="6.56" width=".99" height="2.73"/>
          <rect class="cls-2" x="19.69" y="7.37" width=".99" height="1.92"/>
        </g>
        <rect class="cls-2" x="11.55" y="6.35" width=".99" height="2.22" transform="translate(-.02 .02) rotate(-.12)"/>
        <rect class="cls-2" x="11.83" y="7.54" width=".54" height=".53"/>
      </g>
    </g>
  </g>
</svg>