<?xml version="1.0" encoding="UTF-8"?>
<svg id="Lager_2" data-name="Lager 2" xmlns="http://www.w3.org/2000/svg" viewBox="0 0 137.31 129.17">
  <defs>
    <style>
      .cls-1 {
        fill: none;
        stroke: #1d1d1b;
        stroke-miterlimit: 10;
      }
    </style>
  </defs>
  <g id="Lager_1-2" data-name="Lager 1">
    <g>
      <path class="cls-1" d="M35.2,33.1l-.27.61c.27-.6.51-1.16.72-1.7l-.45,1.09Z"/>
      <path class="cls-1" d="M56.64,21.93l-9.07,4.92-3.48-4.86c-.22-.32-.49-.59-.8-.82-1.61-1.2-6.81-4.35-10.16,1.58-4.01.11-10.02,3.66-12.4,6.72l-7.89,12.32L2.95,23.55,45.11.68l11.53,21.25Z"/>
      <path class="cls-1" d="M35.66,32.01c-.21.54-.45,1.1-.72,1.7-.17.37-.35.76-.54,1.15L1.88,58.9l10.96-17.11,7.89-12.32c2.38-3.06,8.39-6.61,12.4-6.72-.17.31-.34.65-.51,1.02-.5,1.11-.43,2.41.19,3.46l2.84,4.78Z"/>
      <path class="cls-1" d="M135.32,100.09l-36.75,27.83c-.98.74-2.25.95-3.41.57l-12.94-4.2-7.37-2.06-12.47-4.03c-.19-.06-.39-.1-.58-.13l-5.55-.86c-.07-.01-.14-.02-.22-.04l-27.17-5.89c-.11-.02-.23-.05-.34-.09l-2.26-.72c-.77-.24-1.43-.73-1.89-1.35-.46-.63-.72-1.39-.72-2.21,0-.46.09-.92.26-1.35l.79-2.03c.36-.92,1.06-1.66,1.96-2.06l2.57-1.14c.1-.04.19-.08.29-.11l3.78-1.33c.43-.15.88-.22,1.34-.2l6.46.19c.26,0,.53.05.79.11l13.34,3.33s10.06,2.06,13.27-3.88c3.2-5.95-4.12-18.08-4.12-18.08l-28.14-47.36-.59-.99-2.84-4.78c-.62-1.05-.69-2.35-.19-3.46.17-.37.34-.71.51-1.02,3.35-5.93,8.55-2.78,10.16-1.58.31.23.58.5.8.82l3.48,4.86,1.62,2.27,17.28,24.62c1.19,1.69,3.55,2.19,5.23.97,4.35-3.15,10.2-1.76,12.97-.82.94.32,1.97.28,2.84-.19,3.87-2.08,8.31-1.01,10.64-.18.84.3,1.76.32,2.59-.02,3.85-1.57,15.49.78,15.49.78,4.5-1.37,16.87,31.91,20.35,41.57.56,1.54.05,3.25-1.26,4.24Z"/>
    </g>
  </g>
</svg>