<?xml version="1.0" encoding="UTF-8"?>
<svg id="Lager_2" data-name="Lager 2" xmlns="http://www.w3.org/2000/svg" viewBox="0 0 24 20.02">
  <defs>
    <style>
      .cls-1 {
        fill: #4d494a;
      }

      .cls-1, .cls-2 {
        stroke-width: 0px;
      }

      .cls-2 {
        fill: #6e686b;
      }
    </style>
  </defs>
  <g id="Lager_4" data-name="Lager 4">
    <path id="swipe" class="cls-2" d="M8.71,4.14c-3.98,1.22-7.56,1.05-7.99-.37-.13-.43.04-.93.46-1.45C.36,2.9-.08,3.51.01,4.09c.22,1.47,3.74,2.16,7.85,1.54s7.27-2.31,7.05-3.78c0,0,0,0,0,0-.07-.44-.6-.62-.94-.33-1.15.97-3.03,1.95-5.27,2.63Z"/>
    <g id="hand">
      <g>
        <path class="cls-1" d="M19.11,20.02h-2.88c-.79,0-1.57-.23-2.26-.67l-7.17-3.82c-.81-.43-1.17-1.51-.79-2.4l.07-.17c.24-.57.7-1.01,1.25-1.21.5-.18,1.02-.14,1.5.09l2.87.7v-4.43s0-.05,0-.07V2.08c0-1.15.86-2.08,1.92-2.08.52,0,1.02.23,1.38.63.35.39.54.9.54,1.45v1.85c.25-.14.54-.21.84-.21h.11c.83,0,1.53.57,1.77,1.37.28-.17.6-.27.95-.27h.08c.76,0,1.41.48,1.71,1.17.29-.2.65-.32,1.02-.32h.1c1.03,0,1.87.9,1.87,2v6.95c0,2.99-2.2,5.42-4.89,5.42ZM7.97,12.66c-.1,0-.2.02-.3.05-.28.1-.51.33-.65.64l-.07.17c-.17.41-.03.91.32,1.1l7.21,3.84h.02c.52.35,1.12.53,1.72.53h2.88c2.13,0,3.87-1.97,3.87-4.4v-6.95c0-.54-.38-.97-.85-.97h-.1c-.47,0-.85.44-.85.97h-1.02v-.84c0-.54-.38-.98-.85-.98h-.08c-.47,0-.86.44-.86.98h-1.02v-1.1c0-.53-.38-.97-.84-.97h-.11c-.47,0-.84.43-.84.97h-1.02v-3.62c0-.29-.1-.57-.28-.77-.17-.19-.39-.29-.62-.29-.5,0-.9.48-.9,1.06v5.95c0-.25-.2-.45-.45-.45v.51h.46v5.75l-4.26-1.04-.06-.03c-.14-.07-.29-.11-.43-.11ZM15.54,8.61h-.57v-.51h-.45v-.06h.45v-.45h.06v.45h.51v.58Z"/>
        <path class="cls-1" d="M19.11,20.02h-2.88c-.79,0-1.57-.23-2.26-.67l-7.17-3.82c-.81-.43-1.17-1.51-.79-2.4l.07-.17c.24-.57.7-1.01,1.25-1.21.5-.18,1.02-.14,1.5.09l2.87.7v-4.43s0-.05,0-.07V2.08c0-1.15.86-2.08,1.92-2.08.52,0,1.02.23,1.38.63.35.39.54.9.54,1.45v1.85c.25-.14.54-.21.84-.21h.11c.83,0,1.53.57,1.77,1.37.28-.17.6-.27.95-.27h.08c.76,0,1.41.48,1.71,1.17.29-.2.65-.32,1.02-.32h.1c1.03,0,1.87.9,1.87,2v6.95c0,2.99-2.2,5.42-4.89,5.42ZM7.97,12.66c-.1,0-.2.02-.3.05-.28.1-.51.33-.65.64l-.07.17c-.17.41-.03.91.32,1.1l7.21,3.84h.02c.52.35,1.12.53,1.72.53h2.88c2.13,0,3.87-1.97,3.87-4.4v-6.95c0-.54-.38-.97-.85-.97h-.1c-.47,0-.85.44-.85.97h-1.02v-.84c0-.54-.38-.98-.85-.98h-.08c-.47,0-.86.44-.86.98h-1.02v-1.1c0-.53-.38-.97-.84-.97h-.11c-.47,0-.84.43-.84.97h-1.02v-3.62c0-.29-.1-.57-.28-.77-.17-.19-.39-.29-.62-.29-.5,0-.9.48-.9,1.06v5.95c0-.25-.2-.45-.45-.45v.51h.46v5.75l-4.26-1.04-.06-.03c-.14-.07-.29-.11-.43-.11ZM15.54,8.61h-.57v-.51h-.45v-.06h.45v-.45h.06v.45h.51v.58Z"/>
        <polygon class="cls-1" points="14.52 9.65 14.52 9.08 14.52 5.71 15.54 5.71 15.54 9.07 15.54 9.64 14.52 9.65"/>
        <polygon class="cls-1" points="14.52 9.65 14.52 9.08 14.52 5.71 15.54 5.71 15.54 9.07 15.54 9.64 14.52 9.65"/>
        <rect class="cls-1" x="17.34" y="6.81" width="1.02" height="2.83"/>
        <rect class="cls-1" x="17.34" y="6.81" width="1.02" height="2.83"/>
        <rect class="cls-1" x="20.15" y="7.65" width="1.02" height="1.99"/>
        <rect class="cls-1" x="20.15" y="7.65" width="1.02" height="1.99"/>
      </g>
      <rect class="cls-1" x="11.69" y="6.59" width="1.02" height="2.3" transform="translate(-.02 .03) rotate(-.12)"/>
      <rect class="cls-1" x="11.69" y="6.59" width="1.02" height="2.3" transform="translate(-.02 .03) rotate(-.12)"/>
      <rect class="cls-1" x="11.99" y="7.83" width=".56" height=".55"/>
      <rect class="cls-1" x="11.99" y="7.83" width=".56" height=".55"/>
    </g>
  </g>
</svg>