<?xml version="1.0" encoding="UTF-8"?>
<svg id="swipe_svg" data-name="swipe_svg" xmlns="http://www.w3.org/2000/svg" viewBox="0 0 21.18 17.66" width="45" height="40">
  <defs>
    <style>
      .swipe-cls-1 {
        fill: #4d494a;
      }
      .swipe-cls-1, .swipe-cls-2 {
        stroke-width: 0px;
      }
      .swipe-cls-2 {
        fill: #6e686b;
      }
    </style>
  </defs>
  <g id="swipe_layer" data-name="swipe_layer">
    <path id="swipe_path" class="swipe-cls-2" d="M7.69,3.66c-3.51,1.07-6.67.93-7.05-.32-.12-.38.04-.82.4-1.28C.32,2.55-.07,3.1,0,3.61c.19,1.3,3.3,1.91,6.93,1.36s6.42-2.04,6.22-3.33c0,0,0,0,0,0-.06-.38-.53-.54-.83-.29-1.01.86-2.68,1.72-4.65,2.32Z"/>
    <g id="swipe_hand">
      <g>
        <path class="swipe-cls-1" d="M16.86,17.66h-2.54c-.7,0-1.39-.2-1.99-.59l-6.33-3.37c-.72-.38-1.03-1.33-.69-2.12l.06-.15c.21-.51.62-.89,1.1-1.06.44-.15.9-.13,1.32.08l2.53.62v-3.91s0-.04,0-.07V1.84c0-1.01.76-1.84,1.7-1.84.46,0,.9.2,1.22.56.31.34.48.8.48,1.28v1.63c.22-.12.48-.19.74-.19h.1c.73,0,1.35.51,1.57,1.21.25-.15.53-.24.84-.24h.07c.67,0,1.24.42,1.51,1.03.26-.18.57-.29.9-.29h.09c.91,0,1.65.79,1.65,1.76v6.13c0,2.64-1.94,4.78-4.32,4.78ZM7.04,11.17c-.09,0-.18.02-.27.05-.25.09-.45.29-.57.57l-.06.15c-.15.36-.02.81.29.97l6.36,3.39h.02c.46.31.99.46,1.52.46h2.54c1.88,0,3.41-1.74,3.41-3.88v-6.13c0-.47-.34-.86-.75-.86h-.09c-.41,0-.75.39-.75.86h-.9v-.74c0-.48-.34-.86-.75-.86h-.07c-.42,0-.75.39-.75.86h-.9v-.97c0-.47-.33-.85-.74-.85h-.1c-.41,0-.74.38-.74.85h-.9V1.84c0-.26-.09-.5-.25-.68-.15-.17-.34-.26-.55-.26-.44,0-.79.42-.79.93v5.25c0-.22-.18-.4-.4-.4v.45h.4v5.07l-3.76-.92-.05-.03c-.12-.06-.25-.1-.38-.1ZM13.71,7.6h-.5v-.45h-.4v-.06h.4v-.4h.05v.4h.45v.51Z"/>
        <path class="swipe-cls-1" d="M16.86,17.66h-2.54c-.7,0-1.39-.2-1.99-.59l-6.33-3.37c-.72-.38-1.03-1.33-.69-2.12l.06-.15c.21-.51.62-.89,1.1-1.06.44-.15.9-.13,1.32.08l2.53.62v-3.91s0-.04,0-.07V1.84c0-1.01.76-1.84,1.7-1.84.46,0,.9.2,1.22.56.31.34.48.8.48,1.28v1.63c.22-.12.48-.19.74-.19h.1c.73,0,1.35.51,1.57,1.21.25-.15.53-.24.84-.24h.07c.67,0,1.24.42,1.51,1.03.26-.18.57-.29.9-.29h.09c.91,0,1.65.79,1.65,1.76v6.13c0,2.64-1.94,4.78-4.32,4.78ZM7.04,11.17c-.09,0-.18.02-.27.05-.25.09-.45.29-.57.57l-.06.15c-.15.36-.02.81.29.97l6.36,3.39h.02c.46.31.99.46,1.52.46h2.54c1.88,0,3.41-1.74,3.41-3.88v-6.13c0-.47-.34-.86-.75-.86h-.09c-.41,0-.75.39-.75.86h-.9v-.74c0-.48-.34-.86-.75-.86h-.07c-.42,0-.75.39-.75.86h-.9v-.97c0-.47-.33-.85-.74-.85h-.1c-.41,0-.74.38-.74.85h-.9V1.84c0-.26-.09-.5-.25-.68-.15-.17-.34-.26-.55-.26-.44,0-.79.42-.79.93v5.25c0-.22-.18-.4-.4-.4v.45h.4v5.07l-3.76-.92-.05-.03c-.12-.06-.25-.1-.38-.1ZM13.71,7.6h-.5v-.45h-.4v-.06h.4v-.4h.05v.4h.45v.51Z"/>
        <polygon class="swipe-cls-1" points="12.81 8.51 12.81 8.01 12.81 5.04 13.71 5.04 13.71 8.01 13.72 8.51 12.81 8.51"/>
        <polygon class="swipe-cls-1" points="12.81 8.51 12.81 8.01 12.81 5.04 13.71 5.04 13.71 8.01 13.72 8.51 12.81 8.51"/>
        <rect class="swipe-cls-1" x="15.3" y="6.01" width=".9" height="2.5"/>
        <rect class="swipe-cls-1" x="15.3" y="6.01" width=".9" height="2.5"/>
        <rect class="swipe-cls-1" x="17.78" y="6.75" width=".9" height="1.76"/>
        <rect class="swipe-cls-1" x="17.78" y="6.75" width=".9" height="1.76"/>
      </g>
      <rect class="swipe-cls-1" x="10.32" y="5.82" width=".9" height="2.03"/>
      <rect class="swipe-cls-1" x="10.32" y="5.82" width=".9" height="2.03"/>
      <rect class="swipe-cls-1" x="10.58" y="6.91" width=".49" height=".48"/>
      <rect class="swipe-cls-1" x="10.58" y="6.91" width=".49" height=".48"/>
    </g>
  </g>
</svg>
