<?xml version="1.0" encoding="UTF-8"?>
<svg id="Lager_2" data-name="Lager 2" xmlns="http://www.w3.org/2000/svg" viewBox="0 0 187.32 227.74">
  <defs>
    <style>
      .cls-1 {
        fill: #4d494a;
        stroke-width: 0px;
      }
    </style>
  </defs>
  <g id="Lager_1-2" data-name="Lager 1">
    <g>
      <path class="cls-1" d="M39.28,85.56c-7.79,0-15.05,2.29-21.16,6.21v11.13c0,1.49.16,2.94.45,4.34,4.99-5.86,12.42-9.6,20.71-9.6,15,0,27.2,12.2,27.2,27.2v63.62c0,15-12.2,27.2-27.2,27.2s-27.2-12.2-27.2-27.2v-49.34c-4.89-3.68-9.01-8.34-12.08-13.67v63c0,21.66,17.62,39.28,39.28,39.28s39.28-17.62,39.28-39.28v-63.62c0-21.66-17.62-39.28-39.28-39.28Z"/>
      <path class="cls-1" d="M39.28,0C17.62,0,0,17.62,0,39.28v63.62c0,21.66,17.62,39.28,39.28,39.28,7.79,0,15.05-2.29,21.16-6.21v-11.13c0-1.49-.16-2.94-.45-4.34-4.99,5.86-12.42,9.6-20.71,9.6-15,0-27.2-12.2-27.2-27.2v-63.62c0-15,12.2-27.2,27.2-27.2s27.2,12.2,27.2,27.2v49.34c4.89,3.68,9.01,8.34,12.08,13.67v-63C78.56,17.62,60.94,0,39.28,0Z"/>
    </g>
    <g>
      <path class="cls-1" d="M148.04,85.56c-7.79,0-15.05,2.29-21.16,6.21v11.13c0,1.49.16,2.94.45,4.34,4.99-5.86,12.42-9.6,20.71-9.6,15,0,27.2,12.2,27.2,27.2v63.62c0,15-12.2,27.2-27.2,27.2s-27.2-12.2-27.2-27.2v-49.34c-4.89-3.68-9.01-8.34-12.08-13.67v63c0,21.66,17.62,39.28,39.28,39.28s39.28-17.62,39.28-39.28v-63.62c0-21.66-17.62-39.28-39.28-39.28Z"/>
      <path class="cls-1" d="M148.04,0c-21.66,0-39.28,17.62-39.28,39.28v63.62c0,21.66,17.62,39.28,39.28,39.28,7.79,0,15.05-2.29,21.16-6.21v-11.13c0-1.49-.16-2.94-.45-4.34-4.99,5.86-12.42,9.6-20.71,9.6-15,0-27.2-12.2-27.2-27.2v-63.62c0-15,12.2-27.2,27.2-27.2s27.2,12.2,27.2,27.2v49.34c4.89,3.68,9.01,8.34,12.08,13.67v-63c0-21.66-17.62-39.28-39.28-39.28Z"/>
    </g>
  </g>
</svg>