<?xml version="1.0" encoding="UTF-8"?>
<svg id="Lager_2" data-name="Lager 2" xmlns="http://www.w3.org/2000/svg" viewBox="0 0 284.67 180.64">
  <defs>
    <style>
      .cls-1 {
        stroke-width: 2px;
      }

      .cls-1, .cls-2 {
        fill: none;
        stroke: #fff;
        stroke-miterlimit: 10;
      }

      .cls-3 {
        fill: #afafaf;
      }

      .cls-3, .cls-4, .cls-5 {
        stroke-width: 0px;
      }

      .cls-4 {
        fill: #4d494a;
      }

      .cls-2 {
        stroke-width: 6px;
      }

      .cls-5 {
        fill: #fff;
      }
    </style>
  </defs>
  <g id="Lager_1-2" data-name="Lager 1">
    <g>
      <rect class="cls-4" width="136.41" height="86.75"/>
      <rect class="cls-3" x="12.86" y="42.91" width="110.69" height="8.38"/>
      <rect class="cls-3" x="12.86" y="24.13" width="110.69" height="8.38"/>
      <rect class="cls-3" x="12.86" y="61.69" width="110.69" height="8.38"/>
      <rect class="cls-4" y="93.88" width="136.41" height="86.75"/>
      <rect class="cls-3" x="12.86" y="136.79" width="110.69" height="8.38"/>
      <rect class="cls-3" x="12.86" y="118.01" width="110.69" height="8.38"/>
      <rect class="cls-3" x="12.86" y="155.57" width="110.69" height="8.38"/>
      <rect class="cls-4" x="148.27" width="136.41" height="86.75"/>
      <rect class="cls-3" x="161.13" y="42.91" width="110.69" height="8.38"/>
      <rect class="cls-3" x="161.13" y="24.13" width="110.69" height="8.38"/>
      <rect class="cls-3" x="161.13" y="61.69" width="110.69" height="8.38"/>
      <g>
        <rect class="cls-5" x="167.6" y="118.96" width="19.94" height="59.2" rx="4.14" ry="4.14" transform="translate(-52.33 121.25) rotate(-33.14)"/>
        <path class="cls-5" d="M154.57,103.03l21.71,33.24-9.44,6.16-21.71-33.24c1.68-.82,3.31-1.75,4.9-2.79s3.12-2.16,4.54-3.37Z"/>
        <path class="cls-2" d="M158.83,55.29c9.9,15.17,6.65,35.13-6.96,46.43-1.03.87-2.13,1.67-3.29,2.43s-2.33,1.43-3.54,2.03c-15.82,7.91-35.41,2.88-45.32-12.3-10.66-16.32-6.06-38.2,10.26-48.86,16.33-10.66,38.2-6.06,48.86,10.26Z"/>
        <path class="cls-1" d="M115.39,53.31c26.86-4.25,35.17,7.38,35.17,7.38"/>
        <path class="cls-1" d="M117.42,60.64c19.19-3.03,25.14,5.28,25.14,5.28"/>
      </g>
    </g>
  </g>
</svg>