<?xml version="1.0" encoding="UTF-8"?>
<svg id="Lager_2" data-name="Lager 2" xmlns="http://www.w3.org/2000/svg" viewBox="0 0 24.09 15.28" width="45" height="40">
  <defs>
    <style>
      .cls-1 {
        fill: #706a6d;
      }

      .cls-1, .cls-2, .cls-3 {
        stroke-width: 0px;
      }

      .cls-2 {
        fill: #4d494a;
      }

      .cls-3 {
        fill: #fff;
      }
    </style>
  </defs>
  <g id="Lager_4" data-name="Lager 4">
    <g id="rutor">
      <rect class="cls-2" width="11.54" height="7.34"/>
      <rect class="cls-2" y="7.94" width="11.54" height="7.34"/>
      <rect class="cls-2" x="12.55" width="11.54" height="7.34"/>
    </g>
    <g id="streck">
      <rect class="cls-1" x="1.09" y="3.63" width="9.37" height=".71"/>
      <rect class="cls-1" x="1.09" y="2.04" width="9.37" height=".71"/>
      <rect class="cls-1" x="1.09" y="5.22" width="9.37" height=".71"/>
      <rect class="cls-1" x="1.09" y="11.57" width="9.37" height=".71"/>
      <rect class="cls-1" x="1.09" y="9.99" width="9.37" height=".71"/>
      <rect class="cls-1" x="1.09" y="13.16" width="9.37" height=".71"/>
      <rect class="cls-1" x="13.63" y="3.63" width="9.37" height=".71"/>
      <rect class="cls-1" x="13.63" y="2.04" width="9.37" height=".71"/>
      <rect class="cls-1" x="13.63" y="5.22" width="9.37" height=".71"/>
    </g>
    <g id="glas">
      <rect class="cls-3" x="14.18" y="10.07" width="1.69" height="5.01" rx=".84" ry=".84" transform="translate(-4.43 10.26) rotate(-33.14)"/>
      <path class="cls-3" d="M13.08,8.72l1.84,2.81-.8.52-1.84-2.81c.14-.07.28-.15.41-.24s.26-.18.38-.29Z"/>
      <path class="cls-3" d="M10.94,9.55c-1.06,0-2.1-.53-2.72-1.47-.98-1.5-.55-3.51.94-4.49,1.5-.98,3.51-.55,4.49.94h0c.9,1.38.63,3.21-.64,4.26-.09.08-.19.15-.3.22-.11.07-.22.13-.33.19-.46.23-.96.34-1.44.34ZM10.93,3.58c-.51,0-1.03.14-1.49.44-1.26.82-1.62,2.52-.79,3.78.76,1.16,2.27,1.57,3.51.95.09-.05.18-.1.27-.16.09-.06.18-.12.25-.19,1.07-.89,1.3-2.43.54-3.6-.52-.8-1.4-1.24-2.29-1.24Z"/>
      <path class="cls-3" d="M12.67,5.19s-.71-.94-2.89-.59l-.03-.17c2.3-.36,3.03.62,3.06.66l-.14.1Z"/>
      <path class="cls-3" d="M11.99,5.63s-.5-.66-2.04-.41l-.03-.17c1.66-.26,2.19.45,2.21.48l-.14.1Z"/>
    </g>
  </g>
</svg>