<?xml version="1.0" encoding="UTF-8"?>
<svg id="Lager_2" data-name="Lager 2" xmlns="http://www.w3.org/2000/svg" viewBox="0 0 116.4 99.26">
  <defs>
    <style>
      .cls-1 {
        fill: #f5b2cd;
        stroke-width: 0px;
      }
    </style>
  </defs>
  <g id="Lager_2-2" data-name="Lager 2">
    <path class="cls-1" d="M114.86,43.7h0c2.3,5.28-.12,11.42-5.4,13.71L15.3,98.39c-5.28,2.3-11.42-.12-13.71-5.4h0c-2.3-5.28.12-11.42,5.4-13.71l94.16-40.98c5.28-2.3,11.42.12,13.71,5.4Z"/>
    <path class="cls-1" d="M115.68,51.84h0c-2.11,5.36-8.16,7.99-13.51,5.88L6.61,20.12C1.25,18.01-1.38,11.96.73,6.61h0C2.83,1.25,8.88-1.38,14.24.73l95.56,37.6c5.36,2.11,7.99,8.16,5.88,13.51Z"/>
  </g>
</svg>